<?xml version="1.0" encoding="UTF-8"?>
<svg width="105px" height="47px" viewBox="0 0 105 47" version="1.1" xmlns="http://www.w3.org/2000/svg" xmlns:xlink="http://www.w3.org/1999/xlink">
    <!-- Generator: Sketch 46.2 (44496) - http://www.bohemiancoding.com/sketch -->
    <title>lifebit-logo</title>
    <desc>Created with Sketch.</desc>
    <defs></defs>
    <g id="Home" stroke="none" stroke-width="1" fill="none" fill-rule="evenodd">
        <g id="SCI-Home-Landing-Update" transform="translate(-720.000000, -1615.000000)" fill="#4A90E2">
            <g id="Group-11" transform="translate(264.000000, 1615.000000)">
                <g id="Group-12" transform="translate(456.000000, 0.000000)">
                    <path d="M32.1184755,22.9857526 C32.0532624,23.0150178 31.9880493,23.0443943 31.9228362,23.0736596 C31.7895116,23.7734665 31.6681148,24.4757213 31.519964,25.1724125 C31.2880951,26.2623486 31.055223,27.3526185 30.7910262,28.4350992 C30.5237081,29.530154 30.2442393,30.6236508 29.9209605,31.7032384 C29.6144031,32.7267435 29.2441933,33.7313318 28.9018522,34.7441545 C28.6580555,35.4655487 28.4034456,36.1836046 28.1730259,36.9093385 C27.9529734,37.6025801 27.7276816,38.2970458 27.5691636,39.0053095 C27.5173275,39.236761 27.6677078,39.5132787 27.7255636,39.7690993 C28.0120554,39.7014443 28.4235112,39.7305983 28.5638588,39.5498881 C29.2547834,38.6599127 29.9885146,37.7714952 30.4884819,36.773472 C31.0826459,35.5875058 31.4427115,34.2859252 31.9251772,33.0425412 C32.4293805,31.7430748 32.7986986,30.4117837 32.9844166,29.0291951 C33.0672428,28.4120653 33.1171838,27.7823616 33.2823904,27.1861515 C33.6149216,25.9857196 33.2719117,24.9052419 32.7778527,23.8503573 C32.6275838,23.5296635 32.3420952,23.2721737 32.1184755,22.9857526 L32.1184755,22.9857526 Z M12.8163947,1.00008902 C13.593044,1.23087283 14.3451687,1.43561836 14.7561786,2.28653631 C15.2266048,3.2606354 15.3825589,4.25787964 15.1346376,5.27682246 C14.8643097,6.38834585 14.5352343,7.49697611 14.1047162,8.55531018 C13.6135555,9.76264113 12.9764734,10.9104401 12.4134111,12.0890622 C11.8427684,13.2832627 11.2235224,14.4596593 10.7433978,15.6898015 C10.427365,16.4996591 10.3314961,17.3935291 10.1160141,18.2445583 C9.89250589,19.1275234 9.63689275,20.0023654 9.40781075,20.8839952 C9.1962304,21.6985263 9.00549596,22.5182874 8.79792872,23.3339312 C8.56416476,24.2521704 8.29461719,25.1623978 8.09173192,26.0873134 C7.91861059,26.8761401 7.77826304,27.6769844 7.69944991,28.4799429 C7.64973187,28.9871332 8.05684012,29.1661743 8.55335165,28.9962577 C10.2267092,28.4236379 11.2837192,27.1159372 12.3529914,25.8363889 C12.9414702,25.1322423 13.4513587,24.3608858 13.9697195,23.6014357 C14.0815293,23.437528 14.1120736,23.1962844 14.1205457,22.9883119 C14.1418375,22.4642078 14.1370441,21.9386572 14.1285719,21.4139968 C14.1129654,20.4556987 14.5404736,19.6205818 15.0356474,18.8811611 C15.7320344,17.84141 16.5520476,16.8720957 17.405392,15.9522987 C18.2766839,15.0131398 19.4400414,14.5079525 20.6660481,14.1833641 C21.582599,13.9405626 22.8420483,14.7979345 22.9925401,15.775038 C23.1477139,16.782297 23.1666647,17.7847711 22.786868,18.7724457 C22.0584875,20.6663418 21.3559694,22.5705865 20.6673858,24.4793934 C20.3476742,25.3655855 20.0644152,26.2666883 19.8100283,27.1736887 C19.7287627,27.4634482 19.7306578,27.8109592 19.8088021,28.1013863 C19.890625,28.4052776 20.1162513,28.636284 20.5123234,28.4511228 C21.562199,27.9604012 22.4047302,27.2131913 23.1011172,26.3097516 C24.022796,25.113882 24.9150452,23.8947559 25.7931371,22.6665053 C25.9636945,22.4280435 26.0384945,22.1084625 26.1099503,21.8148084 C26.2620028,21.190112 26.3932093,20.5598519 26.5118192,19.9279226 C26.5714585,19.6104558 26.4573077,19.392246 26.1404946,19.2133162 C25.3837994,18.7862438 25.2325272,18.0490486 25.548783,17.2651181 C25.8731765,16.4609355 26.3463897,15.8517063 27.0671897,15.3479655 C27.3535701,15.1477823 27.4557931,14.5779443 27.5017209,14.1609979 C27.6593472,12.7272228 27.7128554,11.2816526 27.8855308,9.85010308 C28.0793866,8.24440855 28.3918522,6.65306847 28.587826,5.04759649 C28.6772293,4.31563123 28.787144,3.63440726 29.1452031,2.95997105 C29.9026786,1.53331758 31.2236623,1.31566419 32.4386329,1.62823494 C33.658397,1.94191844 34.6825217,2.65552336 35.4585021,3.68158775 C36.2306924,4.70264479 36.8164957,5.82451674 36.8622006,7.10985128 C36.9001023,8.17486184 36.5721416,9.19714289 36.0693874,10.1539944 C35.3045546,11.6093568 34.5534332,13.071952 33.8095577,14.538108 C33.6058921,14.939476 33.8085544,15.1705936 34.3144299,15.1412171 C35.7399776,15.0583174 37.164522,14.9538304 38.59085,14.8905151 C39.8989026,14.8324297 39.9956633,14.9539417 40.2529486,16.2412792 C40.575224,17.85276 39.7313551,19.1032655 38.7675386,19.5992171 C38.2831778,19.8483612 37.7475384,20.0449837 37.1307449,19.8750671 C36.6618793,19.7458772 36.1441874,19.7933915 35.6482333,19.7623458 L35.5412169,19.8974334 C35.7053087,20.1212069 35.8473284,20.3659 36.037171,20.5649705 C36.8345547,21.4012002 37.3840171,22.375188 37.5139974,23.5198713 C37.6550138,24.7628102 37.7741811,26.0192133 37.7484302,27.2664919 C37.7301483,28.1532403 37.474981,29.0386534 37.2907122,29.9172788 C37.1182597,30.739933 36.9436892,31.566593 36.6914203,32.366881 C36.3387121,33.4857485 35.9990464,34.62242 35.4979644,35.6777496 C34.803807,37.1396772 34.0523512,38.5902547 33.1660101,39.9413526 C32.052928,41.6379586 30.7654983,43.2053747 29.0958195,44.4321787 C27.7141931,45.4473382 26.2523044,46.1329018 24.5018058,45.97823 C23.0043565,45.845813 21.6714449,45.376011 21.0125137,43.8743584 C20.5419759,42.8018924 20.5066382,41.6583219 20.6993792,40.5171994 C20.8056153,39.8876069 20.9739432,39.2670277 21.1409333,38.6496754 C21.3689006,37.8067693 21.6191629,36.9697607 21.8655236,36.1319731 C22.1570318,35.1405152 22.4476482,34.1488347 22.7527565,33.1616052 C22.8653467,32.7974029 23.0226385,32.44711 23.1508352,32.0873588 C23.208468,31.9256766 23.244586,31.7563164 23.3410123,31.4079152 C23.0320024,31.5636999 22.8626712,31.6235657 22.7222122,31.7238242 C21.5050121,32.5935476 20.3253792,33.5206888 19.069943,34.3306576 C17.8995625,35.0856567 16.557064,35.2182962 15.1941655,35.0191144 C14.0321457,34.8493092 13.1501521,33.8613007 13.0386767,32.6869071 C12.9746898,32.0115807 12.8865128,31.3385911 12.7910898,30.5071462 C12.3817521,30.8524317 12.0420865,31.096346 11.7529192,31.3898887 C10.4852207,32.6767811 8.95889923,33.596133 7.3865384,34.4392618 C6.07012514,35.1450774 4.61927253,35.2180737 3.19038057,34.9960806 C2.31708211,34.8603254 1.61987796,34.3155309 1.25160003,33.4273292 C0.892697435,32.5617387 1.179141,29.56298 1.19262953,29.4779661 C1.31647872,28.6955934 1.40666234,27.9077682 1.53898367,27.1269534 C1.725705,26.0252221 1.93929191,24.9279419 2.14273455,23.8289925 C2.23236079,23.3445023 2.31752801,22.8588993 2.41785589,22.3765233 C2.65228871,21.2483087 2.9022166,20.1232098 3.13074122,18.9938825 C3.26562648,18.3269017 3.37230846,17.6542458 3.49024945,16.9839268 C3.57563963,16.4991027 3.65043963,16.0121645 3.74497079,15.5292321 C3.89635441,14.756429 4.09455772,13.9910813 4.20993478,13.2132709 C4.34749545,12.2859072 4.38428234,11.3432988 4.52853153,10.4172704 C4.66375122,9.54988383 4.81680697,8.67481925 5.082007,7.84114889 C5.35991523,6.96686324 5.72778412,6.11049282 6.1515022,5.29562789 C6.75592194,4.13314066 7.50592858,3.06601588 8.53183689,2.21198224 C9.33044681,1.54700438 10.2901387,1.27449253 11.2557388,1.00008902 L12.8163947,1.00008902 Z M68.1082264,1 C68.4658395,1.13820323 68.8539969,1.22677792 69.1756035,1.42362294 C70.2657217,2.09104885 70.3465413,3.19322517 70.3423053,4.31276035 C70.3371774,5.7130417 69.7192691,6.91981628 69.0837478,8.10945454 C68.5240297,9.15710624 67.9367772,10.1921839 67.3148558,11.2040051 C66.5899311,12.3831836 65.794331,13.5190761 65.0663965,14.6965854 C64.463426,15.6720198 63.855439,16.6529067 63.3663963,17.6864265 C63.1222651,18.2022962 63.1045406,18.837675 63.0438979,19.4250943 C62.7298717,22.4675683 62.6408028,25.5180541 62.7931897,28.573436 C62.805675,28.8235816 62.8845996,29.0908635 63.0055504,29.3100748 C63.1561537,29.5828092 63.3786586,29.7408193 63.7363832,29.5393007 C64.7863702,28.9478755 65.51319,28.082158 65.9715769,26.9854341 C66.3971901,25.9672702 66.7957147,24.9378676 67.2155312,23.9172557 C67.6461607,22.8701604 67.2891049,20.8450713 66.5469016,20.2123631 C66.3983049,20.0856212 66.2352163,19.9736788 66.0704556,19.8679678 C65.0079834,19.1862987 64.9575965,19.0077028 65.227367,17.713355 C65.3921277,16.9224141 65.8019113,16.1377046 66.2659835,15.4628233 C67.2522066,14.0287144 69.4112626,13.3322458 71.0848431,13.9218907 C72.080653,14.27274 72.6156236,15.0894966 72.9179449,16.0716074 C73.3976237,17.62912 73.3510269,19.2365949 73.1643056,20.8063477 C73.017158,22.0431665 72.6123908,23.2644068 72.2003776,24.4504842 C71.822253,25.5387512 71.3601874,26.6152231 70.7921086,27.6160281 C70.1107708,28.8159036 69.3085937,29.95213 68.5027379,31.0758937 C67.4855246,32.4944241 66.1224032,33.5342865 64.6010981,34.3648412 C62.7769143,35.3608614 59.7261664,35.4862681 58.1563695,33.9204099 C57.3498448,33.1160048 56.8087431,32.1718386 56.5346251,31.0682157 C56.4428808,30.698561 56.319366,30.3366955 56.1997529,29.9353275 C55.6081529,29.7708635 55.3372676,30.3365843 55.0253593,30.6325751 C53.8126182,31.7830446 52.4678902,32.7190878 50.9550573,33.4152226 C49.9866703,33.8608779 49.0303226,34.3730755 48.0133324,34.6621673 C47.0000208,34.9502576 45.95806,35.169914 44.8429713,34.8770388 C43.867004,34.6206618 42.8954957,34.4081271 42.0796071,33.7988979 C40.8354299,32.8699763 40.136479,31.6071193 39.8892265,30.0785381 C39.7839937,29.428026 39.5756462,28.791757 39.5030757,28.1391307 C39.4258232,27.443441 39.3718691,26.7268316 39.4519085,26.0359268 C39.6411937,24.4010783 39.9654757,22.7924906 40.7176004,21.2980708 C41.7575546,19.2314763 42.9383023,17.2475589 44.549791,15.5809971 C45.4606567,14.6389451 46.5389584,13.8165135 47.808775,13.4006798 C48.7490701,13.0927826 49.7158965,13.0053206 50.7530638,13.2673727 C51.8523229,13.5452257 52.8082247,13.9273432 53.4210051,14.8906486 C53.7248871,15.3684623 54.042592,15.9152664 54.0971035,16.456618 C54.2024478,17.5015991 54.2617527,18.5877519 54.0888543,19.6147065 C53.8850773,20.8260433 53.3070772,21.9406824 52.4634312,22.8747226 C51.5769786,23.8561658 50.4774966,24.5657649 49.2889456,25.0988822 C48.4532144,25.4736555 47.5267421,25.6421255 46.6652601,25.9673815 C46.4010633,26.0670837 46.0202633,26.3937863 46.0337518,26.5936358 C46.0782305,27.2566107 46.1883682,27.9482945 46.4520076,28.5510698 C46.6105256,28.9133803 47.0428273,29.1636372 47.5672077,29.1955731 C49.0849456,29.2879311 50.4385916,28.8847827 51.7582377,28.1543753 C53.0977263,27.4129517 54.2417986,26.4634443 55.32612,25.3999916 C55.918166,24.81936 56.1685398,24.143366 56.2669726,23.3751251 C56.4774382,21.7325987 56.5791038,20.0702653 56.8941333,18.4487698 C57.1991301,16.8786831 57.666435,15.3339672 58.1531367,13.8068326 C58.6356024,12.2931623 59.1675631,10.7881714 59.7920484,9.32813552 C60.7516288,7.08483672 61.8448683,4.90340668 63.5313799,3.08807053 C64.431544,2.11920136 65.4672621,1.35040416 66.7705213,1 L68.1082264,1 Z M103.433759,24.2919337 C103.474048,24.8239779 102.500367,26.4189901 102.228813,26.8752165 C101.119744,28.7385121 99.7033373,30.3498816 98.1222814,31.8233817 C97.0634879,32.8099436 95.9164058,33.6726567 94.6250745,34.3411953 C93.1195989,35.1204523 91.5171397,35.5491939 89.8485756,35.2392938 C88.0723262,34.9093642 86.6584835,33.9333734 85.9000047,32.2288669 C85.6815129,31.7378115 85.669362,31.156846 85.5467391,30.6208356 C85.5134079,30.475177 85.4504243,30.2597491 85.3503194,30.2260328 C85.2379522,30.1881994 85.0377423,30.2854535 84.928162,30.3828189 C83.968916,31.235406 83.043224,32.126828 82.0645813,32.9562699 C80.9854992,33.8707257 79.7773286,34.7053976 78.4032826,34.9527613 C76.6913545,35.2609923 75.3028166,35.3295376 74.2228428,33.7126043 C73.9731378,33.3388324 73.7690263,32.8417682 73.7778329,32.4062388 C73.8055903,31.0462389 73.8240952,29.6654307 74.0780362,28.336699 C74.3006526,27.171875 74.8406395,26.0680295 75.2281281,24.9331384 C75.2837543,24.7703435 75.3383773,24.5552494 75.2781806,24.412929 C74.416587,22.3776027 74.850115,20.4926086 75.9639774,18.7113225 C76.6773086,17.5702 77.5117021,16.5182086 78.571499,15.6592789 C79.4243974,14.9679289 80.3757287,14.4610725 81.4258272,14.1803263 C82.4550797,13.9051438 83.8090602,14.9565789 83.9154078,16.0577537 C84.050516,17.4562547 83.7627979,18.777531 83.2226995,20.0702097 C82.707683,21.3026887 82.2660174,22.5657683 81.796037,23.8168302 C81.458378,24.7159301 81.0775779,25.6033462 80.8124894,26.5236996 C80.6645615,27.0376776 80.6514074,27.6130793 80.6926533,28.1520942 C80.7288828,28.6260133 81.0108042,28.7070213 81.4322927,28.4601027 C82.3262141,27.936555 83.0734339,27.2469854 83.7305815,26.4514823 C84.4987586,25.5215593 85.3290276,24.6369251 86.0287588,23.6587088 C86.4198146,23.1121273 86.6268244,22.4254508 86.8682802,21.7838407 C87.0722802,21.2418214 87.2155261,20.6761006 87.3685819,20.1162774 C87.472254,19.7372756 87.4937688,19.3894308 86.9965884,19.2358716 C85.8483916,18.8810165 85.524221,17.8472741 86.1928506,16.8175377 C86.6645031,16.0912474 87.2032638,15.5322031 88.1368705,15.4120264 C88.5031787,15.3649572 88.7607984,15.0374756 88.7856575,14.5638903 C88.8475263,13.3833766 88.8498673,12.1809417 89.0916575,11.0324751 C89.547592,8.86784755 90.4317035,6.92120721 92.4417169,5.6837208 C93.520576,5.01952187 94.6870548,4.81766949 95.8797304,5.05490724 C96.8960518,5.25698217 97.9173896,5.95990471 97.8969896,7.40558616 C97.8812716,8.52601154 97.6236519,9.56398233 97.128478,10.5691271 C96.5489173,11.7453011 96.0330091,12.9526321 95.4867795,14.1452747 C95.380432,14.3775051 95.2613762,14.6039492 95.1001827,14.930318 C95.446091,14.9522392 95.6599008,14.9831735 95.8725959,14.9761632 C96.7262747,14.9477882 97.5793961,14.9036121 98.4330749,14.8737905 C98.8260258,14.8601037 99.0810815,14.9719348 99.2952258,15.3897715 C100.144111,17.0467636 99.491757,18.8511949 98.0579601,19.5950665 C97.5449502,19.8612357 96.9825567,20.0539635 96.319055,19.8763691 C95.6665894,19.701779 94.9576057,19.7271496 94.2720318,19.6906515 C93.8521039,19.6682853 93.7192252,19.9906482 93.6439793,20.3239161 C93.3778875,21.5014254 93.0999792,22.6769318 92.8700055,23.8616739 C92.7159464,24.6557305 92.6313366,25.4634739 92.5230939,26.2660986 C92.4445038,26.8494008 92.404707,27.4391569 92.300366,28.017563 C92.1217824,29.0066842 93.0981956,29.4452179 93.8945761,29.2453685 C96.4833698,28.5956353 98.1043339,26.698846 99.7464783,24.8239779 C100.159829,24.352173 100.496262,23.8141596 100.889659,23.3237718 C101.419279,22.6638013 101.838538,22.6434381 102.523108,23.1941368 C102.665685,23.308861 102.840144,23.3840827 103,23.4775535 C103,23.4775535 103.39347,23.7598895 103.433759,24.2919337 Z M26.389252,5.74600128 C26.216688,6.94899251 25.6308847,7.87457582 25.0661502,8.7993802 C24.6728649,9.44332713 24.223173,10.0530014 23.7993435,10.6783655 C23.3307008,11.3697155 22.4373368,11.4246852 21.631258,10.7968731 C20.84413,10.1837493 20.4321169,9.3579794 20.3055923,8.3808759 C20.2349169,7.83551838 20.0477496,7.27146672 20.1258939,6.74736268 C20.3084906,5.52100375 20.5872907,4.30554974 20.8927333,3.10222468 C21.0362022,2.53683772 22.3080253,2.02475135 22.8962811,2.16395606 C24.0627599,2.43991742 24.9441961,3.15296596 25.6418093,4.05495902 C26.008006,4.52843305 26.1474618,5.1767197 26.389252,5.74600128 Z M81.0705773,7.35026036 C81.1409183,6.35724456 81.1304396,5.34976305 81.3051216,4.37533013 C81.470774,3.45130468 81.7850233,2.53896306 82.867784,2.21459719 C83.6737513,1.973131 84.3411547,2.34901708 84.9776793,2.70320458 C85.9152991,3.22497185 86.5653123,4.01969606 87.0077583,5.02239276 C87.335496,5.76537421 87.1311615,6.44314866 86.82505,7.0297891 C86.1786041,8.26827698 85.419345,9.45179514 84.6532859,10.6232956 C84.0503153,11.5453181 83.2639677,11.3415741 82.4703741,10.7943249 C81.7849118,10.3215185 81.3419085,9.63005728 81.2405773,8.75866477 C81.1859543,8.28930791 81.0770428,7.82629371 80.992656,7.36038636 C81.0186297,7.35704812 81.0446035,7.3535986 81.0705773,7.35026036 Z M46.3746436,22.6673065 C46.5901256,22.5862985 46.6885584,22.5425675 46.7910043,22.5118557 C48.6683619,21.9486942 49.2421259,20.8535282 49.0342243,19.0215008 C48.9997784,18.7184997 48.695116,18.3801132 48.4214439,18.2007384 C48.3018307,18.1222897 47.8968405,18.350848 47.7056602,18.5296665 C46.8223289,19.3559927 46.6393978,20.5040142 46.3855682,21.605968 C46.314224,21.9158682 46.3746436,22.2559238 46.3746436,22.6673065 Z" id="Combined-Shape"></path>
                </g>
            </g>
        </g>
    </g>
</svg>